#!OML:ASF F:\VICON\USERDATA\INSTALL\rory3\rory3.ASF
:FULLY-SPECIFIED
:DEGREES
105
root 0.4993270246689286 17.496941461706083 14.70329674760898 10.816585466745936 -2.198382556146628 -2.72776917944974
lfemur -34.61733653778256 8.491040439959207 -18.384444518597075
ltibia 49.19692155928593
lfoot -10.440977432757196 1.2416710686303576
ltoes -9.733994701546028
rfemur -30.668681582383936 -2.021934963809905 21.871599648754046
rtibia 32.79393047870463
rfoot -14.161358086099762 3.2962712950862474
rtoes 9.847763860137604
lowerback 11.88920199950908 1.437401315929566 -1.1374397048610942
upperback 6.137726174783292 1.6773431063652744 1.093772609323956
thorax 2.360576864757732 0.7246381368711792 1.3024727128830067
lowerneck -13.721020645930395 0.4711447162211061 -0.08586491425747511
upperneck 21.623515069052953 0.7098577509084192 -0.27902029354903796
head 8.913883986246939 0.20828150260431172 -0.17827004571887498
lclavicle 3.875888601830064e-16 -1.4346737887054688e-15
lhumerus -21.168963254798687 -6.03796410281234 78.5976780008583
lradius 26.35645970918784
lwrist 20.077661390979824
lhand -25.631597176851596 -7.582304840100341
lfingers 7.12502
lthumb 0.28038264667884494 20.96426796907231
rclavicle 3.8786341009025376e-16 -1.434814135829156e-15
rhumerus -28.67911638557206 -7.945591235019943 -70.76896091524736
rradius 35.791748575840984
rwrist 21.17016458403547
rhand -23.186240881205265 -25.24000747988479
rfingers 7.12502
rthumb 5.189035188925699 -54.02716098673274
106
root 0.4916005206514172 17.466756542356357 14.659993225586927 10.746359860762889 -2.187620242921561 -2.714154172832973
lfemur -35.23541586950425 8.356325549947625 -18.468444211651743
ltibia 49.552979947158825
lfoot -10.444000810055368 1.1598026554186918
ltoes -9.71025544883527
rfemur -30.49332372829012 -2.0120453056573893 21.85461430557474
rtibia 32.853823415853036
rfoot -14.116002015170194 3.233966736773167
rtoes 9.80832847888539
lowerback 12.64551604459725 1.424903108434 -1.2104570527877276
upperback 6.171631302318048 1.660160401618398 1.1121253832624012
thorax 2.3820900410618173 0.7179646651188727 1.3218416533000297
lowerneck -13.654173905599372 0.4715550875967211 -0.013154390695744977
upperneck 21.82861001672148 0.7031723219299475 -0.2806141743871785
head 9.009039797404935 0.20734369654188384 -0.16766279740657922
lclavicle 3.8773287934885583e-16 -1.4344988461748103e-15
lhumerus -22.19459395115173 -6.199743932794517 78.18782784129152
lradius 26.555748729033013
lwrist 20.642589179667866
lhand -25.64903639289333 -7.5411335232183925
lfingers 7.12502
lthumb 0.32125651924965015 20.972713309493905
rclavicle 3.878713842992556e-16 -1.4348035765699538e-15
rhumerus -28.490489488113234 -7.7007042083464805 -71.08229173725972
rradius 36.16816696535306
rwrist 21.13422595529214
rhand -22.998269681485187 -25.123235513269073
rfingers 7.12502
rthumb 5.247397922140208 -53.94268809079675
107
root 0.48661563091384874 17.437363139673387 14.597922049107522 10.631993313049577 -2.1912198873853814 -2.6702203039684558
lfemur -35.687366867301726 8.248051761650315 -18.59405776860798
ltibia 49.7239739551567
lfoot -10.394097291760904 1.0451281743040175
ltoes -9.655273291377247
rfemur -30.294996347239127 -2.025405033777324 21.792137593786325
rtibia 32.91353201601661
rfoot -14.086936704001644 3.214222543437161
rtoes 9.766187895533747
lowerback 13.346365801911494 1.427986602420488 -1.3046296549034602
upperback 6.199975457068226 1.6623699938073253 1.1173142571760029
thorax 2.379859581336822 0.7163713945412664 1.3281392657991211
lowerneck -13.571229299329069 0.466653430032769 0.043050421186740406
upperneck 22.107000714173363 0.6866364228121606 -0.2884528217651034
head 9.121441750437286 0.2011623219925921 -0.16677436325093084
lclavicle 3.8789591828284574e-16 -1.434276251394003e-15
lhumerus -23.368266640592694 -6.362985029185777 77.8109228885252
lradius 26.63339743164925
lwrist 21.12017026064651
lhand -25.6733124127572 -7.511911215997577
lfingers 7.12502
lthumb 0.38352897963398047 20.97774861744095
rclavicle 3.88015201306929e-16 -1.434601555953557e-15
rhumerus -28.43730409870018 -7.555049508356019 -71.29952367178842
rradius 36.387115310094984
rwrist 21.115705634673123
rhand -22.755985933202393 -24.999364661240794
rfingers 7.12502
rthumb 5.311623089909992 -53.85405949609837
108
root 0.4835915076582212 17.40543690211606 14.548268084945265 10.497022822654117 -2.205956720906676 -2.6179225978394687
lfemur -36.009469578023555 8.158581626352483 -18.713974705946953
ltibia 49.80342482441026
lfoot -10.305715612197949 0.9529530200009626
ltoes -9.754814394034765
rfemur -29.998509746174726 -2.0185931742895282 21.71976691561435
rtibia 32.964750984971154
rfoot -14.07066789769981 3.2143755370604468
rtoes 9.703289525956041
lowerback 14.07311899656986 1.4349589695256335 -1.3792094205578358
upperback 6.215697302796095 1.6709880679145122 1.1238105182311022
thorax 2.3592239120465 0.7186203580710884 1.330177704005667
lowerneck -13.487048319469825 0.46048391329971616 0.08067648707225705
upperneck 22.47315644577999 0.6706362796719334 -0.2965746625820087
head 9.248708001725449 0.19409051752791573 -0.16533533127147945
lclavicle 3.8755639996673264e-16 -1.4347391179927966e-15
lhumerus -24.616915367955457 -6.351050147439242 77.50826024321218
lradius 26.588925201067397
lwrist 21.436494713875327
lhand -25.687375684304556 -7.502066720791462
lfingers 7.12502
lthumb 0.4876864170199353 21.01041702743698
rclavicle 3.8761200657706014e-16 -1.4351701554183765e-15
rhumerus -28.50824907712766 -7.501859856255134 -71.32926085368351
rradius 36.419741629262845
rwrist 21.231188263041123
rhand -22.499270151786522 -24.882059068716934
rfingers 7.12502
rthumb 5.344817633046955 -53.79835805965746
109
root 0.48045196204155416 17.37750950929785 14.522735113523176 10.402523407155636 -2.2149784088330957 -2.638536244744438
lfemur -36.23518733932103 8.083274245517918 -18.74954677417815
ltibia 49.98576859831099
lfoot -10.218631458527641 0.8797619833791677
ltoes -9.857697211819199
rfemur -29.665979857766775 -1.9757280572361398 21.70899253800451
rtibia 32.986881867434604
rfoot -14.098840742578144 3.179547885615668
rtoes 9.585999298309302
lowerback 14.913929035031497 1.4473035751225234 -1.369896398224377
upperback 6.2105277598682775 1.6897584727360688 1.1519058575402896
thorax 2.342994490473075 0.7282642764065973 1.3264675131001504
lowerneck -13.426814025170199 0.44624852752158983 0.10949501715705112
upperneck 22.779908808517522 0.6405344940846189 -0.2910645042427154
head 9.364220698811183 0.18055782286831112 -0.15652669439096037
lclavicle 3.8772013344569857e-16 -1.4345196589690485e-15
lhumerus -25.673943361622463 -6.065898334782507 77.339130403639
lradius 26.42560937619344
lwrist 21.529976226421788
lhand -25.682966782256724 -7.4346372279620985
lfingers 7.12502
lthumb 0.6101393617311397 21.126838558381447
rclavicle 3.8754167441738064e-16 -1.4352693846365697e-15
rhumerus -28.64446926994574 -7.433326220254147 -71.23817183040701
rradius 36.38409521421914
rwrist 21.448722951518235
rhand -22.21765048636897 -24.765514698046847
rfingers 7.12502
rthumb 5.358754047979491 -53.761981124483725
110
root 0.47868511340644426 17.353822372452328 14.522444329018052 10.354204560269213 -2.246904690303574 -2.7174644107196118
lfemur -36.374012174471645 8.031636709797004 -18.72197843362077
ltibia 50.1994300540654
lfoot -10.195568995513058 0.8341558053620286
ltoes -9.91042965151697
rfemur -29.33779440998199 -1.93356243067118 21.743902611212665
rtibia 33.02420006867754
rfoot -14.04989517470197 3.1764281041497786
rtoes 9.501597774844042
lowerback 15.869273523123482 1.4727662710790685 -1.2995424455410638
upperback 6.203320360776081 1.7282679339914109 1.192649932890254
thorax 2.3152256381561642 0.746587714743955 1.305367665026289
lowerneck -13.385794510176916 0.42536987514285907 0.1446657153008012
upperneck 22.985454629085915 0.6009422370405572 -0.2871564525339781
head 9.47299606169587 0.1647905267924541 -0.15618101367897477
lclavicle 3.8771692616992655e-16 -1.4345560121503947e-15
lhumerus -26.52366252795741 -5.625580953392587 77.36490209123436
lradius 26.22711928596631
lwrist 21.576692515366098
lhand -25.69160542857366 -7.353398400254464
lfingers 7.12502
lthumb 0.74528333125996 21.25275570452021
rclavicle 3.8743738357326525e-16 -1.4354175137077457e-15
rhumerus -28.771498583860307 -7.272314577578014 -71.1592206012411
rradius 36.42133643974611
rwrist 21.656171532181865
rhand -21.94327564507065 -24.640109587350132
rfingers 7.12502
rthumb 5.337200820887299 -53.768310468175024
